<svg width="23" height="28" viewBox="0 0 23 28" fill="none" xmlns="http://www.w3.org/2000/svg">
<rect x="11.36" width="11.28" height="11" rx="4" fill="#FF6633"/>
<path d="M17.88 9C17.8133 9 17.7567 8.98 17.71 8.94C17.67 8.89333 17.65 8.83667 17.65 8.77V3.17L15.99 4.45C15.9433 4.49 15.8933 4.51 15.84 4.51C15.78 4.51 15.7233 4.47667 15.67 4.41L15.41 4.08C15.3767 4.03333 15.36 3.98667 15.36 3.94C15.36 3.86 15.3933 3.79667 15.46 3.75L17.64 2.07C17.7133 2.02333 17.8 2 17.9 2H18.41C18.4767 2 18.53 2.02333 18.57 2.07C18.6167 2.11 18.64 2.16333 18.64 2.23V8.77C18.64 8.83667 18.6167 8.89333 18.57 8.94C18.53 8.98 18.4767 9 18.41 9H17.88Z" fill="white"/>
<path fill-rule="evenodd" clip-rule="evenodd" d="M0.5 4.5C0.223858 4.5 0 4.72386 0 5C0 5.27614 0.223858 5.5 0.5 5.5H4.08051C4.83783 9.79147 5.60333 14.0643 6.24931 18.3709C6.43288 19.5947 7.48416 20.5 8.72165 20.5H18.8597C20.0514 20.5 21.0774 19.6588 21.3111 18.4903L22.7503 11.2942C22.936 10.366 22.226 9.5 21.2795 9.5H6.66046C6.3575 9.5 6.07797 9.58901 5.84436 9.74093L4.99239 4.91311C4.95023 4.67418 4.74262 4.5 4.5 4.5H0.5ZM6.166 11.0742C6.12065 10.7719 6.35478 10.5 6.66046 10.5H21.2795C21.595 10.5 21.8316 10.7887 21.7698 11.0981L20.3305 18.2942C20.1903 18.9953 19.5747 19.5 18.8597 19.5H8.72165C7.97916 19.5 7.34839 18.9568 7.23825 18.2225L6.166 11.0742Z" fill="#414141"/>
<path fill-rule="evenodd" clip-rule="evenodd" d="M17 25C17 23.6193 18.1193 22.5 19.5 22.5C20.8807 22.5 22 23.6193 22 25C22 26.3807 20.8807 27.5 19.5 27.5C18.1193 27.5 17 26.3807 17 25ZM19.5 23.5C18.6716 23.5 18 24.1716 18 25C18 25.8284 18.6716 26.5 19.5 26.5C20.3284 26.5 21 25.8284 21 25C21 24.1716 20.3284 23.5 19.5 23.5Z" fill="#414141"/>
<path fill-rule="evenodd" clip-rule="evenodd" d="M5 25C5 23.6193 6.11929 22.5 7.5 22.5C8.88071 22.5 10 23.6193 10 25C10 26.3807 8.88071 27.5 7.5 27.5C6.11929 27.5 5 26.3807 5 25ZM7.5 23.5C6.67157 23.5 6 24.1716 6 25C6 25.8284 6.67157 26.5 7.5 26.5C8.32843 26.5 9 25.8284 9 25C9 24.1716 8.32843 23.5 7.5 23.5Z" fill="#414141"/>
</svg>
