<svg width="20" height="14" viewBox="0 0 20 14" fill="none" xmlns="http://www.w3.org/2000/svg">
<path fill-rule="evenodd" clip-rule="evenodd" d="M0.5 7C0.5 6.7239 0.72386 6.5 1 6.5H19C19.2761 6.5 19.5 6.7239 19.5 7C19.5 7.2761 19.2761 7.5 19 7.5H1C0.72386 7.5 0.5 7.2761 0.5 7Z" fill="white"/>
<path fill-rule="evenodd" clip-rule="evenodd" d="M0.5 1C0.5 0.72386 0.72386 0.5 1 0.5H19C19.2761 0.5 19.5 0.72386 19.5 1C19.5 1.27614 19.2761 1.5 19 1.5H1C0.72386 1.5 0.5 1.27614 0.5 1Z" fill="white"/>
<path fill-rule="evenodd" clip-rule="evenodd" d="M0.5 13C0.5 12.7239 0.72386 12.5 1 12.5H19C19.2761 12.5 19.5 12.7239 19.5 13C19.5 13.2761 19.2761 13.5 19 13.5H1C0.72386 13.5 0.5 13.2761 0.5 13Z" fill="white"/>
</svg>
