<svg width="16" height="16" viewBox="0 0 16 16" fill="none" xmlns="http://www.w3.org/2000/svg">
<path d="M7.10327 1.81695C7.47009 1.07371 8.52993 1.07371 8.89675 1.81696L10.1185 4.29246C10.2641 4.5876 10.5457 4.79217 10.8714 4.8395L13.6033 5.23647C14.4235 5.35565 14.751 6.36362 14.1575 6.94216L12.1807 8.86907C11.945 9.09881 11.8375 9.42981 11.8931 9.7542L12.3598 12.4751C12.4999 13.292 11.6424 13.9149 10.9088 13.5293L8.46535 12.2446C8.17403 12.0915 7.82599 12.0915 7.53467 12.2446L5.0912 13.5293C4.35757 13.9149 3.50014 13.292 3.64025 12.4751L4.10691 9.7542C4.16255 9.42981 4.055 9.09881 3.81932 8.86907L1.84251 6.94216C1.24899 6.36362 1.5765 5.35565 2.39672 5.23647L5.1286 4.8395C5.45431 4.79217 5.73588 4.5876 5.88154 4.29246L7.10327 1.81695Z" fill="#BFBFBF"/>
<path d="M8.00001 1.25952V12.1297C7.84017 12.1297 7.68033 12.168 7.53467 12.2446L5.0912 13.5292C4.35757 13.9149 3.50014 13.292 3.64025 12.475L4.10691 9.7542C4.16255 9.42981 4.055 9.09881 3.81932 8.86907L1.84251 6.94216C1.24899 6.36362 1.5765 5.35565 2.39672 5.23647L5.12861 4.8395C5.45432 4.79217 5.73588 4.5876 5.88154 4.29246L7.10328 1.81696C7.28668 1.44533 7.64335 1.25952 8.00001 1.25952Z" fill="#FF6633"/>
</svg>
